<svg width="238" height="31" viewBox="0 0 238 31" fill="none" xmlns="http://www.w3.org/2000/svg">
<path d="M0 22.1045C0 26.5228 3.58172 30.1045 8 30.1045C12.4183 30.1045 16 26.5228 16 22.1045C16 17.6863 12.4183 14.1045 8 14.1045C3.58172 14.1045 0 17.6863 0 22.1045ZM23.5796 10.5104L24.2979 11.8272L24.2979 11.8272L23.5796 10.5104ZM34.1904 5.43795L33.716 4.01493L34.1904 5.43795ZM45.1116 3.91105L44.8472 2.43454L45.1116 3.91105ZM62.9428 2.09946L63.0028 3.59826L62.9428 2.09946ZM84.5007 2.53942L84.4315 4.03782L84.5007 2.53942ZM92.9893 4.40276L92.8362 5.89493L92.8362 5.89493L92.9893 4.40276ZM102.047 7.71538L102.641 6.33806L102.641 6.33806L102.047 7.71538ZM128.134 17.2391L128.581 15.8074L128.134 17.2391ZM155.101 25.7277L155.425 24.2632L155.425 24.2632L155.101 25.7277ZM175.261 27.1511L175.234 25.6514L175.261 27.1511ZM198.32 23.9679L198.615 25.4386L198.32 23.9679ZM214.21 20.707L213.755 19.2776L213.755 19.2776L214.21 20.707ZM221.738 16.5145C221.738 20.9328 225.32 24.5145 229.738 24.5145C234.156 24.5145 237.738 20.9328 237.738 16.5145C237.738 12.0962 234.156 8.51451 229.738 8.51451C225.32 8.51451 221.738 12.0962 221.738 16.5145ZM9.14186 23.0772C12.8325 18.7448 19.0683 14.6798 24.2979 11.8272L22.8614 9.19355C17.5626 12.0838 10.9208 16.3627 6.85814 21.1318L9.14186 23.0772ZM24.2979 11.8272C27.6893 9.97741 31.1839 8.02126 34.6647 6.86098L33.716 4.01493C29.9257 5.27835 26.1696 7.38904 22.8614 9.19355L24.2979 11.8272ZM34.6647 6.86098C36.2601 6.32917 37.9327 6.12079 39.7418 5.97021C41.501 5.82378 43.4656 5.72973 45.3761 5.38755L44.8472 2.43454C43.121 2.7437 41.3984 2.82194 39.493 2.98055C37.6374 3.135 35.6676 3.36441 33.716 4.01493L34.6647 6.86098ZM45.3761 5.38755C51.17 4.34984 57.0762 3.83533 63.0028 3.59826L62.8829 0.600659C56.8667 0.841304 50.8162 1.36546 44.8472 2.43454L45.3761 5.38755ZM63.0028 3.59826C70.1269 3.3133 77.233 3.70558 84.4315 4.03782L84.5698 1.04101C77.4209 0.711061 70.1657 0.309345 62.8829 0.600659L63.0028 3.59826ZM84.4315 4.03782C85.6746 4.09519 86.9053 4.43259 88.3124 4.84771C89.6664 5.24715 91.2106 5.72821 92.8362 5.89493L93.1423 2.91059C91.8511 2.77816 90.5986 2.39435 89.1613 1.97032C87.7771 1.56196 86.222 1.11727 84.5698 1.04101L84.4315 4.03782ZM92.8362 5.89493C94.3499 6.05018 95.6886 6.48699 97.0597 7.07134C97.7509 7.36593 98.4369 7.6919 99.1668 8.03943C99.8883 8.38296 100.651 8.74667 101.453 9.09269L102.641 6.33806C101.899 6.01775 101.186 5.67826 100.456 5.33079C99.7351 4.98731 98.9936 4.63447 98.2359 4.31153C96.7091 3.66081 95.0635 3.10763 93.1423 2.91059L92.8362 5.89493ZM101.453 9.09269C110.133 12.8372 118.751 15.8784 127.687 18.6709L128.581 15.8074C119.714 13.0363 111.2 10.0299 102.641 6.33806L101.453 9.09269ZM127.687 18.6709C136.472 21.4164 145.481 25.1351 154.777 27.1923L155.425 24.2632C146.268 22.2367 137.742 18.6702 128.581 15.8074L127.687 18.6709ZM154.777 27.1923C161.351 28.6472 168.75 28.7708 175.289 28.6509L175.234 25.6514C168.726 25.7708 161.629 25.6362 155.425 24.2632L154.777 27.1923ZM175.289 28.6509C183.209 28.5055 191.047 26.9559 198.615 25.4386L198.025 22.4972C190.42 24.0219 182.842 25.5118 175.234 25.6514L175.289 28.6509ZM198.615 25.4386C203.625 24.4342 209.494 23.7816 214.665 22.1364L213.755 19.2776C208.781 20.8604 203.423 21.415 198.025 22.4972L198.615 25.4386ZM214.665 22.1364C219.767 20.513 224.9 18.8415 229.985 17.9941L229.491 15.0349C224.151 15.9249 218.797 17.6736 213.755 19.2776L214.665 22.1364Z" fill="black"/>
</svg>
